<svg width="1114" height="300" viewBox="0 0 1114 300" xmlns="http://www.w3.org/2000/svg"><title>A4 Project</title><g fill="none" fill-rule="evenodd"><g transform="translate(135 22)"><path d="M258.759 112.722l-5.441-23.498h-30.949l-5.441 23.498H187L220.669 2.043h35.37l33.668 110.68H258.76zm-31.118-46.144h20.405l-1.87-7.663c-2.721-10.557-5.442-24.009-8.162-35.076h-.68c-2.381 11.238-5.102 24.52-7.823 35.076l-1.87 7.663zm102.637 48.187c-13.944 0-29.928-5.108-41.831-15.835l16.664-20.093c7.822 6.3 17.685 10.728 25.847 10.728 8.843 0 12.584-2.895 12.584-7.833 0-5.278-5.612-6.981-14.964-10.727l-13.774-5.79c-11.903-4.767-22.276-14.814-22.276-30.82 0-18.9 17.005-34.395 41.15-34.395 12.584 0 26.528 4.768 36.73 14.814l-14.623 18.39c-7.482-5.279-13.944-8.003-22.106-8.003-7.142 0-11.563 2.554-11.563 7.492 0 5.278 6.292 7.151 16.324 11.068l13.434 5.278c13.773 5.449 21.595 14.984 21.595 30.31 0 18.73-15.644 35.416-43.191 35.416zm87.503 0c-13.943 0-29.928-5.108-41.83-15.835l16.664-20.093c7.822 6.3 17.684 10.728 25.846 10.728 8.843 0 12.584-2.895 12.584-7.833 0-5.278-5.612-6.981-14.964-10.727l-13.774-5.79c-11.903-4.767-22.276-14.814-22.276-30.82 0-18.9 17.005-34.395 41.151-34.395 12.583 0 26.527 4.768 36.73 14.814l-14.624 18.39c-7.482-5.279-13.944-8.003-22.106-8.003-7.142 0-11.563 2.554-11.563 7.492 0 5.278 6.292 7.151 16.324 11.068l13.434 5.278c13.774 5.449 21.596 14.984 21.596 30.31 0 18.73-15.644 35.416-43.192 35.416zm55.875-2.043V2.043h71.419v24.52h-42.171V43.93h36.05v24.52h-36.05v19.751h43.871v24.52h-73.119zm89.544 0V2.043h31.288l16.665 45.293c2.04 6.13 3.74 12.941 5.781 19.412h.68c2.04-6.47 3.741-13.282 5.782-19.412L639.38 2.043h31.288v110.68h-26.527V80.028c0-11.238 2.38-28.436 3.741-39.504h-.68l-9.182 26.563-13.604 36.61h-15.644l-13.604-36.61-8.842-26.563h-.68c1.36 11.068 3.74 28.266 3.74 39.504v32.693H563.2zm126.953 0V2.043h39.791c23.126 0 41.831 5.79 41.831 27.585 0 9.535-5.441 20.433-13.944 23.838v.681c10.543 3.065 19.045 11.239 19.045 25.882 0 22.817-19.725 32.693-43.531 32.693h-43.192zm29.248-67.429h9.863c9.522 0 13.944-4.427 13.944-11.238s-4.422-9.535-13.944-9.535H719.4v20.773zm0 44.953h11.903c11.563 0 17.005-4.087 17.005-12.26s-5.442-11.238-17.005-11.238h-11.903v23.498zm69.819 22.476V2.043h29.247v86.16H860.3v24.52h-71.08zm89.203 0V74.58L845.095 2.043h31.288l8.162 23.158c2.72 8.343 5.441 16.006 8.332 24.69h.68c2.891-8.684 5.782-16.347 8.673-24.69l8.162-23.158H941L907.671 74.58v38.142h-29.248zm-677.48 145.235v-110.68h72.1v24.52H230.19v21.115h36.73v24.52h-36.73v40.525h-29.247zM331.979 260c-30.608 0-51.353-21.455-51.353-57.894 0-36.438 20.745-56.871 51.353-56.871 30.609 0 51.354 20.603 51.354 56.871 0 36.44-20.745 57.894-51.354 57.894zm0-25.2c13.264 0 21.426-12.601 21.426-32.694 0-20.092-8.162-31.67-21.426-31.67-13.263 0-21.425 11.578-21.425 31.67 0 20.093 8.162 32.693 21.425 32.693zm111.31 25.2c-30.948 0-45.912-17.709-45.912-55.51v-57.212h29.248v60.618c0 19.752 5.1 26.903 16.664 26.903 11.563 0 17.004-7.151 17.004-26.903v-60.618h28.228v57.212c0 37.801-14.284 55.51-45.232 55.51zm156.201-2.043h-32.648l-19.045-37.12h-11.223v37.12h-29.248v-110.68h41.831c23.806 0 44.212 8.174 44.212 35.759 0 15.835-7.142 26.222-17.855 32.011l23.976 42.91zm-62.916-87.522v27.244h10.543c11.563 0 17.684-5.108 17.684-14.643 0-9.536-6.121-12.6-17.684-12.6h-10.543z" fill="#FFF"/><g transform="translate(0 1)" fill="#A442FF"><path d="M64 176.021983L31.5345338 257 0 257 33.3660131 176z"/><path d="M108.204 64.555l-26.75 66.99h26.75v-66.99zm29.422 192.22l-29.233.225v-97.492H40L105.904 0h31.722v131.455H169v27.55h-31.374v97.77z"/></g></g><path d="M762.904 279v-53.3h19.516c11.644 0 21.648 4.264 21.648 17.712 0 13.038-10.168 18.696-21.32 18.696h-5.74V279h-14.104zm14.104-28.044h5.084c5.576 0 8.2-2.788 8.2-7.544s-3.116-6.56-8.528-6.56h-4.756v14.104zM854.792 279h-15.744l-9.184-17.876h-5.412V279h-14.104v-53.3h20.172c11.48 0 21.32 3.936 21.32 17.22 0 7.626-3.444 12.628-8.61 15.416L854.792 279zm-30.34-42.148v13.12h5.084c5.576 0 8.528-2.46 8.528-7.052s-2.952-6.068-8.528-6.068h-5.084zm57.612 43.132c-14.76 0-24.764-10.332-24.764-27.88s10.004-27.388 24.764-27.388 24.764 9.922 24.764 27.388c0 17.548-10.004 27.88-24.764 27.88zm0-12.136c6.396 0 10.332-6.068 10.332-15.744s-3.936-15.252-10.332-15.252c-6.396 0-10.332 5.576-10.332 15.252 0 9.676 3.936 15.744 10.332 15.744zm40.065 12.136c-8.692 0-14.268-3.28-18.204-10.086l9.512-7.134c1.804 3.444 4.428 5.084 6.724 5.084 3.772 0 5.904-1.804 5.904-8.528V225.7h14.104v34.768c0 10.66-5.74 19.516-18.04 19.516zm27.108-.984v-53.3h34.44v11.808H963.34v8.364h17.384v11.808H963.34v9.512h21.156V279h-35.26zm66.304.984c-13.612 0-25.42-9.02-25.42-27.224 0-17.876 12.3-28.044 25.748-28.044 7.052 0 12.792 3.28 16.564 7.052l-7.38 9.02c-2.624-2.296-5.248-3.936-8.856-3.936-6.232 0-11.644 5.74-11.644 15.416 0 10.004 4.592 15.58 11.48 15.58 4.1 0 7.38-2.132 9.676-4.592l7.38 8.856c-4.51 5.248-10.66 7.872-17.548 7.872zm31.864-.984v-41.492h-14.104V225.7h42.312v11.808h-14.104V279h-14.104zm-990.621 0l-2.624-11.316H39.236L36.612 279H22.18l16.236-53.3h17.056L71.708 279H56.784zm-15.006-22.222h9.84l-.902-3.69c-1.312-5.084-2.624-11.562-3.936-16.892h-.328c-1.148 5.412-2.46 11.808-3.772 16.892l-.902 3.69zM74.38 279v-53.3h14.432l11.808 23.78 5.084 11.972h.328c-.656-5.74-1.804-13.776-1.804-20.336V225.7h13.448V279h-14.432l-11.808-23.862-5.084-11.89h-.328c.656 6.068 1.804 13.776 1.804 20.336V279H74.38z" fill="#FFF"/></g></svg>